PathFileType  4	(X/Y/Z) C:\Users\antoi\Documents\MyRepositories\mobilecap\ResultsAnalysis
DataRate	CameraRate	NumFrames	NumMarkers	Units	OrigDataRate	OrigDataStartFrame	OrigNumFrames
100.0	100.0	6	51	mm	100.0	19	151
Frame#	Time	r_knee			r_shank_antsup			r_ankle			r_calc			r_5meta			r_toe			L_knee			L_shank_antsup			L_ankle			L_calc			L_5meta			L_toe			r_sh2			r_sh3			r_sh4			L_sh2			L_sh3			r_thigh1			r_thigh2			r_thigh3			r_thigh4			r_thigh5			L_thigh1			L_thigh2			L_thigh3			L_thigh4			r.ASIS			r.PSIS			L.ASIS			L.PSIS			C7			R_Shoulder			L_Shoulder			R_Sternum			L_Sternum			R_humerus			R_elbow_med			R_elbow_lat			R_forearm			R_wrist_radius			R_wrist_ulna			L_humerus			L_elbow_med			L_elbow_lat			L_forearm			L_wrist_radius			L_wrist_ulna			R_HJC			L_HJC			R_HJC_reg			L_HJC_reg			
		X1	Y1	Z1	X2	Y2	Z2	X3	Y3	Z3	X4	Y4	Z4	X5	Y5	Z5	X6	Y6	Z6	X7	Y7	Z7	X8	Y8	Z8	X9	Y9	Z9	X10	Y10	Z10	X11	Y11	Z11	X12	Y12	Z12	X13	Y13	Z13	X14	Y14	Z14	X15	Y15	Z15	X16	Y16	Z16	X17	Y17	Z17	X18	Y18	Z18	X19	Y19	Z19	X20	Y20	Z20	X21	Y21	Z21	X22	Y22	Z22	X23	Y23	Z23	X24	Y24	Z24	X25	Y25	Z25	X26	Y26	Z26	X27	Y27	Z27	X28	Y28	Z28	X29	Y29	Z29	X30	Y30	Z30	X31	Y31	Z31	X32	Y32	Z32	X33	Y33	Z33	X34	Y34	Z34	X35	Y35	Z35	X36	Y36	Z36	X37	Y37	Z37	X38	Y38	Z38	X39	Y39	Z39	X40	Y40	Z40	X41	Y41	Z41	X42	Y42	Z42	X43	Y43	Z43	X44	Y44	Z44	X45	Y45	Z45	X46	Y46	Z46	X47	Y47	Z47	X48	Y48	Z48	X49	Y49	Z49	X50	Y50	Z50	X51	Y51	Z51	

19	0.18000000	215.10234	602.30551	-57.78236	237.27606	450.66091	-75.11393	148.64228	96.22256	-109.11685	95.42963	77.23294	-175.83457	286.42776	37.70010	-83.52082	327.75422	64.76459	-131.49155	216.13490	611.19020	-370.34704	133.08657	432.84759	-343.49955	-142.98459	294.07703	-314.29972	-190.49643	321.62521	-239.41066	-138.29100	135.11823	-357.28465	-81.21483	115.24318	-309.21416	227.87083	339.22384	-90.97372	172.56088	448.07445	-32.67329	159.81750	335.25600	-41.92426	84.08082	490.52541	-388.37821	-5.97789	418.97102	-363.70851	198.85039	890.95675	-5.44573	233.26380	786.56716	-16.61194	180.32823	744.84396	-11.03627	89.85372	860.71793	-27.72044	125.90287	748.03296	-30.64260	211.10118	910.44769	-371.53511	245.97573	780.78197	-377.90947	102.92094	885.90246	-366.68920	139.82126	754.15416	-378.91725	195.45360	1171.96711	-52.53074	-3.86082	1193.59578	-119.86778	157.14846	1169.29132	-327.49447	-15.08413	1194.13876	-212.36109	41.44749	1685.36845	-136.77482	118.69771	1622.63070	27.23146	94.80822	1671.83064	-320.67527	186.04247	1597.50617	-126.56099	186.03384	1604.90966	-183.44650	89.80302	1347.43903	75.10014	-10.28436	1247.81352	33.48490	5.29037	1261.16774	104.45075	94.49711	1062.79798	110.09286	128.04993	972.37889	97.89288	96.99645	968.30060	123.34371	84.75131	1381.17315	-401.68611	-6.57329	1308.03893	-356.56309	14.88801	1305.97719	-429.97783	105.92760	1121.52784	-462.89183	138.93986	1047.73458	-456.94912	113.91058	1048.88482	-481.57022	117.25363	1072.82908	-82.87585	85.89471	1074.51589	-277.83921	123.36211	1082.54233	-84.46096	101.28992	1083.61017	-266.35954	
20	0.19000000	218.20074	602.28939	-57.45157	239.23754	450.52983	-74.77037	148.80627	96.21254	-109.19088	95.38423	77.46345	-175.81381	286.45916	37.62460	-83.41012	327.82093	64.69849	-131.34413	236.53104	616.26358	-369.79980	157.99296	435.16856	-343.56996	-114.03010	288.93467	-315.42015	-162.65410	314.54869	-240.54637	-103.87382	130.49223	-359.14522	-46.16848	112.43458	-311.05101	229.15289	339.15555	-90.65608	174.45331	448.35142	-32.48208	160.99760	335.58462	-41.76643	107.95516	491.67170	-388.68050	19.71294	417.62083	-364.35888	206.35644	891.30360	-5.02587	239.30494	786.39044	-16.53549	185.48686	745.27410	-10.48195	96.84570	862.49627	-27.18743	131.16847	749.46224	-30.23195	225.99281	915.41713	-370.64516	263.58845	786.43257	-376.94535	118.47323	888.73327	-367.58219	158.12030	757.70317	-379.60716	205.74418	1173.41110	-51.58851	6.50950	1195.20847	-118.99165	167.11808	1171.54741	-326.47263	-4.82193	1195.83387	-211.48284	51.99245	1687.01251	-135.27546	129.68953	1624.19014	28.27054	104.77123	1673.78081	-319.38974	196.57600	1599.16192	-125.69138	196.37608	1606.62874	-182.55217	102.47860	1348.89775	76.51172	2.78902	1248.56850	35.47477	18.48699	1262.15717	106.43592	109.53315	1064.62548	112.06288	143.57211	974.42324	99.91895	112.96435	970.20632	125.47039	93.72134	1383.37806	-400.74396	2.31508	1310.30996	-355.15318	23.58002	1308.23619	-428.82931	115.56434	1124.29028	-462.11225	149.15383	1050.87386	-456.45502	123.85912	1051.69255	-480.80622	127.56718	1074.34207	-82.25362	96.14534	1076.53966	-277.20192	133.60779	1084.35007	-83.51001	111.32916	1085.57942	-265.35317	
21	0.20000000	221.16017	602.26624	-57.08911	241.10616	450.38887	-74.42207	148.98969	96.20688	-109.23659	95.29985	77.65969	-175.77951	286.49316	37.55855	-83.28602	327.88856	64.64524	-131.18513	256.22002	621.21981	-369.11088	182.65834	437.29364	-343.48513	-84.63193	282.84645	-316.52706	-134.45969	306.25528	-241.71135	-68.32559	125.21687	-360.95922	-10.11854	109.29401	-312.77209	230.39397	339.08660	-90.34261	176.28926	448.58758	-32.23956	162.17525	335.88206	-41.54975	131.49314	492.35853	-388.96148	45.37992	415.60830	-364.98504	213.65872	891.59365	-4.63762	245.26204	786.17600	-16.45012	190.51309	745.73102	-10.00474	103.68297	864.23164	-26.71797	136.38937	750.81045	-29.86221	240.63188	920.14270	-369.67983	280.78477	791.85365	-375.84017	133.84011	891.48255	-368.66094	176.03423	761.19901	-380.25559	215.95366	1174.65106	-50.69925	16.80696	1196.70109	-118.19946	177.16615	1173.56875	-325.49163	5.39634	1197.40994	-210.68325	62.46805	1688.49490	-133.84311	140.50959	1625.63034	29.29314	114.66298	1675.55845	-318.10624	207.03684	1600.67519	-124.80710	206.57413	1608.17844	-181.63627	114.92544	1350.27133	77.91953	15.67898	1249.23817	37.36835	31.44001	1263.05722	108.35398	124.43605	1066.44244	114.03430	159.11197	976.54815	101.94155	128.84945	972.11203	127.58492	102.71590	1385.36226	-399.85207	11.26584	1312.33997	-353.82729	32.28929	1310.30671	-427.75328	125.23191	1126.86454	-461.39834	159.40463	1053.83461	-456.02400	133.85083	1054.30180	-480.10741	137.76243	1075.68433	-81.66732	106.35501	1078.37942	-276.61163	143.76808	1085.97596	-82.62690	121.34057	1087.36862	-264.40073	
22	0.21000000	224.03335	602.23638	-56.67525	242.90640	450.22491	-74.04356	149.18680	96.22967	-109.24046	95.22727	77.82319	-175.74471	286.52465	37.49341	-83.15505	327.95373	64.59470	-131.01964	275.19104	626.01321	-368.28770	207.09563	439.29649	-343.31494	-54.77203	275.90946	-317.61642	-105.84959	296.80382	-242.89548	-31.62293	119.44154	-362.72513	26.96885	105.96642	-314.40356	231.60614	339.00562	-90.01596	178.07809	448.78354	-31.94940	163.33353	336.15008	-41.28424	154.64385	492.70011	-389.16863	71.00890	413.05676	-365.54927	220.77623	891.83297	-4.26592	251.14306	785.93273	-16.27129	195.48615	746.22696	-9.56948	110.39572	865.90406	-26.27972	141.58586	752.07056	-29.48395	254.97158	924.57786	-368.66877	297.49640	796.98895	-374.60686	148.94377	894.10971	-369.75870	193.46897	764.58731	-380.79916	226.10244	1175.67839	-49.87698	27.03576	1198.05292	-117.49754	187.26927	1175.35050	-324.56600	15.57226	1198.84930	-209.97617	72.89149	1689.80724	-132.48304	151.19377	1626.92859	30.29326	124.52220	1677.13605	-316.86129	217.43370	1602.03109	-123.91989	216.70739	1609.55273	-180.71771	127.13467	1351.54213	79.32822	28.36067	1249.81076	39.18128	44.13838	1263.86137	110.21163	139.19082	1068.24174	116.00317	174.72062	978.75415	103.97310	144.64302	974.01375	129.67957	111.75314	1387.11270	-399.01626	20.31989	1314.10250	-352.60085	41.01865	1312.17140	-426.75274	134.94353	1129.21838	-460.75047	169.69072	1056.57007	-455.65320	143.90668	1056.67998	-479.47354	147.85507	1076.84314	-81.13372	116.52216	1080.02373	-276.08255	153.85211	1087.40214	-81.82617	131.32934	1088.96597	-263.52088	
23	0.22000000	226.85453	602.19416	-56.21984	244.66378	450.02953	-73.63664	149.38069	96.29614	-109.20288	95.22588	77.96334	-175.72601	286.54204	37.42111	-83.03138	328.01284	64.53446	-130.86334	293.44935	630.58933	-367.34354	231.31852	441.20195	-343.10499	-24.42261	268.21732	-318.68639	-76.71856	286.29925	-244.07818	6.15266	113.30333	-364.42726	65.04058	102.55572	-315.96738	232.80106	338.90425	-89.68089	179.83252	448.94076	-31.63219	164.46420	336.38964	-40.99379	177.38948	492.75884	-389.26740	96.60342	410.05413	-366.03041	227.73216	892.01812	-3.90473	256.92942	785.64859	-15.95028	200.44373	746.75957	-9.13957	117.01218	867.49072	-25.84970	146.76719	753.23956	-29.07208	268.96561	928.68492	-367.63542	313.65413	801.78644	-373.25512	163.69950	896.57457	-370.71991	210.33482	767.81104	-381.18685	236.21075	1176.49533	-49.12571	37.20029	1199.25391	-116.88943	197.40219	1176.89538	-323.70511	25.70560	1200.13173	-209.36958	83.27479	1690.94844	-131.20174	161.77698	1628.06673	31.26375	134.38915	1678.49524	-315.69163	227.77827	1603.22078	-123.04007	226.84967	1610.75172	-179.81408	139.10815	1352.69363	80.74010	40.81810	1250.27113	40.93211	56.58109	1264.56196	112.01431	153.79144	1070.01292	117.96216	190.37431	981.01273	106.02070	160.33694	975.90220	131.74735	120.84957	1388.62728	-398.23801	29.49838	1315.58995	-351.47527	49.77283	1313.81967	-425.82874	144.71723	1131.32795	-460.16178	180.01722	1059.03973	-455.33160	154.04532	1058.80317	-478.89774	157.86283	1077.81556	-80.66116	126.64773	1081.46568	-275.62061	163.86657	1088.63703	-81.09885	141.29320	1090.35998	-262.71155	
24	0.23000000	229.63971	602.12871	-55.75667	246.40673	449.80064	-73.22578	149.55020	96.41233	-109.13418	95.33841	78.09260	-175.73230	286.53197	37.33578	-82.93043	328.06394	64.45300	-130.73680	311.01022	634.88715	-366.29761	255.32481	442.98926	-342.86850	6.44797	259.86752	-319.73189	-46.95948	274.89329	-245.23014	44.84483	106.92620	-366.04990	103.97337	99.13613	-317.48021	233.99214	338.77849	-89.35778	181.57317	449.06103	-31.31530	165.57561	336.60086	-40.70607	199.74311	492.54171	-389.24423	122.17642	406.65183	-366.42462	234.54969	892.13765	-3.55727	262.58950	785.30029	-15.48374	205.38002	747.31872	-8.68536	123.55635	868.97209	-25.41864	151.93863	754.31474	-28.63101	282.56753	932.43483	-366.59237	329.19886	806.20171	-371.79480	178.02673	898.83903	-371.42974	226.56055	770.81485	-381.38427	246.29366	1177.11303	-48.44036	47.30719	1200.30673	-116.37672	207.54912	1178.20952	-322.91274	35.79749	1201.24477	-208.86587	93.62597	1691.92165	-130.00599	172.28659	1629.03228	32.19770	144.30196	1679.62634	-314.62886	238.08776	1604.24083	-122.17469	237.04968	1611.77757	-178.93879	150.85692	1353.71152	82.15281	53.04467	1250.60241	42.63900	68.77637	1265.14920	113.76616	168.23717	1071.74241	119.90169	206.00190	983.28169	108.07993	175.92064	977.76383	133.78205	130.02214	1389.91033	-397.51586	38.80890	1316.80729	-350.44087	58.57193	1315.24407	-424.98000	154.57253	1133.17743	-459.62098	190.39833	1061.21016	-455.04096	164.27734	1060.65617	-478.36846	167.80034	1078.60861	-80.24876	136.73602	1082.70416	-275.22359	173.81796	1089.70339	-80.42265	151.22704	1091.54385	-261.95771	
